{
    "asset" : {
        "generator" : "Khronos glTF Blender I/O v3.3.27",
        "version" : "2.0"
    },
    "scene" : 0,
    "scenes" : [
        {
            "name" : "Scene",
            "nodes" : [
                0,
                1,
                2,
                3
            ]
        }
    ],
    "nodes" : [
        {
            "mesh" : 0,
            "name" : "Cube"
        },
        {
            "mesh" : 1,
            "name" : "Almond_Plane.005",
            "rotation" : [
                0.7071068286895752,
                0,
                0,
                0.7071067094802856
            ]
        },
        {
            "mesh" : 2,
            "name" : "Eyes_Sphere",
            "rotation" : [
                0.7071068286895752,
                0,
                0,
                0.7071067094802856
            ]
        },
        {
            "mesh" : 3,
            "name" : "Optimized_model_Plane.004",
            "rotation" : [
                0.7071068286895752,
                0,
                0,
                0.7071067094802856
            ]
        }
    ],
    "materials" : [
        {
            "doubleSided" : true,
            "name" : "Material",
            "pbrMetallicRoughness" : {
                "baseColorFactor" : [
                    0.800000011920929,
                    0.800000011920929,
                    0.800000011920929,
                    1
                ],
                "metallicFactor" : 0,
                "roughnessFactor" : 0.5
            }
        },
        {
            "doubleSided" : true,
            "name" : "Almond",
            "pbrMetallicRoughness" : {
                "metallicFactor" : 0,
                "roughnessFactor" : 0.5
            }
        },
        {
            "doubleSided" : true,
            "name" : "Eyes",
            "pbrMetallicRoughness" : {}
        },
        {
            "doubleSided" : true,
            "name" : "Skin",
            "pbrMetallicRoughness" : {}
        },
        {
            "doubleSided" : true,
            "name" : "Mouth",
            "pbrMetallicRoughness" : {
                "baseColorFactor" : [
                    0.800000011920929,
                    0.06656000018119812,
                    0.046939000487327576,
                    1
                ],
                "metallicFactor" : 0,
                "roughnessFactor" : 0.22727274894714355
            }
        }
    ],
    "meshes" : [
        {
            "name" : "Cube",
            "primitives" : [
                {
                    "attributes" : {
                        "POSITION" : 0,
                        "NORMAL" : 1,
                        "TEXCOORD_0" : 2
                    },
                    "indices" : 3,
                    "material" : 0
                }
            ]
        },
        {
            "name" : "Almond_Plane.005",
            "primitives" : [
                {
                    "attributes" : {
                        "POSITION" : 4,
                        "NORMAL" : 5,
                        "TEXCOORD_0" : 6
                    },
                    "indices" : 7,
                    "material" : 1
                }
            ]
        },
        {
            "name" : "Eyes_Sphere",
            "primitives" : [
                {
                    "attributes" : {
                        "POSITION" : 8,
                        "NORMAL" : 9,
                        "TEXCOORD_0" : 10
                    },
                    "indices" : 11,
                    "material" : 2
                }
            ]
        },
        {
            "name" : "Optimized_model_Plane.004",
            "primitives" : [
                {
                    "attributes" : {
                        "POSITION" : 12,
                        "NORMAL" : 13,
                        "TEXCOORD_0" : 14
                    },
                    "indices" : 15,
                    "material" : 3
                },
                {
                    "attributes" : {
                        "POSITION" : 16,
                        "NORMAL" : 17,
                        "TEXCOORD_0" : 18
                    },
                    "indices" : 19,
                    "material" : 4
                }
            ]
        }
    ],
    "accessors" : [
        {
            "bufferView" : 0,
            "componentType" : 5126,
            "count" : 24,
            "max" : [
                1,
                1,
                1
            ],
            "min" : [
                -1,
                -1,
                -1
            ],
            "type" : "VEC3"
        },
        {
            "bufferView" : 1,
            "componentType" : 5126,
            "count" : 24,
            "type" : "VEC3"
        },
        {
            "bufferView" : 2,
            "componentType" : 5126,
            "count" : 24,
            "type" : "VEC2"
        },
        {
            "bufferView" : 3,
            "componentType" : 5123,
            "count" : 36,
            "type" : "SCALAR"
        },
        {
            "bufferView" : 4,
            "componentType" : 5126,
            "count" : 80642,
            "max" : [
                3.290958881378174,
                0.8932629823684692,
                -0.646914005279541
            ],
            "min" : [
                2.3160269260406494,
                -0.8714069724082947,
                -1.1370409727096558
            ],
            "type" : "VEC3"
        },
        {
            "bufferView" : 5,
            "componentType" : 5126,
            "count" : 80642,
            "type" : "VEC3"
        },
        {
            "bufferView" : 6,
            "componentType" : 5126,
            "count" : 80642,
            "type" : "VEC2"
        },
        {
            "bufferView" : 7,
            "componentType" : 5125,
            "count" : 479232,
            "type" : "SCALAR"
        },
        {
            "bufferView" : 8,
            "componentType" : 5126,
            "count" : 1028,
            "max" : [
                2.263190984725952,
                1.2558050155639648,
                -2.6884710788726807
            ],
            "min" : [
                1.0974990129470825,
                0.2262990027666092,
                -3.332447052001953
            ],
            "type" : "VEC3"
        },
        {
            "bufferView" : 9,
            "componentType" : 5126,
            "count" : 1028,
            "type" : "VEC3"
        },
        {
            "bufferView" : 10,
            "componentType" : 5126,
            "count" : 1028,
            "type" : "VEC2"
        },
        {
            "bufferView" : 11,
            "componentType" : 5123,
            "count" : 5760,
            "type" : "SCALAR"
        },
        {
            "bufferView" : 12,
            "componentType" : 5126,
            "count" : 6522,
            "max" : [
                3.043452024459839,
                1.6545900106430054,
                1.9811550378799438
            ],
            "min" : [
                -3.062122106552124,
                -1.476925015449524,
                -4.217665195465088
            ],
            "type" : "VEC3"
        },
        {
            "bufferView" : 13,
            "componentType" : 5126,
            "count" : 6522,
            "type" : "VEC3"
        },
        {
            "bufferView" : 14,
            "componentType" : 5126,
            "count" : 6522,
            "type" : "VEC2"
        },
        {
            "bufferView" : 15,
            "componentType" : 5123,
            "count" : 34428,
            "type" : "SCALAR"
        },
        {
            "bufferView" : 16,
            "componentType" : 5126,
            "count" : 315,
            "max" : [
                2.265815019607544,
                1.4410439729690552,
                -2.2657830715179443
            ],
            "min" : [
                1.652838945388794,
                0.8368099927902222,
                -2.5295889377593994
            ],
            "type" : "VEC3"
        },
        {
            "bufferView" : 17,
            "componentType" : 5126,
            "count" : 315,
            "type" : "VEC3"
        },
        {
            "bufferView" : 18,
            "componentType" : 5126,
            "count" : 315,
            "type" : "VEC2"
        },
        {
            "bufferView" : 19,
            "componentType" : 5123,
            "count" : 1776,
            "type" : "SCALAR"
        }
    ],
    "bufferViews" : [
        {
            "buffer" : 0,
            "byteLength" : 288,
            "byteOffset" : 0,
            "target" : 34962
        },
        {
            "buffer" : 0,
            "byteLength" : 288,
            "byteOffset" : 288,
            "target" : 34962
        },
        {
            "buffer" : 0,
            "byteLength" : 192,
            "byteOffset" : 576,
            "target" : 34962
        },
        {
            "buffer" : 0,
            "byteLength" : 72,
            "byteOffset" : 768,
            "target" : 34963
        },
        {
            "buffer" : 0,
            "byteLength" : 967704,
            "byteOffset" : 840,
            "target" : 34962
        },
        {
            "buffer" : 0,
            "byteLength" : 967704,
            "byteOffset" : 968544,
            "target" : 34962
        },
        {
            "buffer" : 0,
            "byteLength" : 645136,
            "byteOffset" : 1936248,
            "target" : 34962
        },
        {
            "buffer" : 0,
            "byteLength" : 1916928,
            "byteOffset" : 2581384,
            "target" : 34963
        },
        {
            "buffer" : 0,
            "byteLength" : 12336,
            "byteOffset" : 4498312,
            "target" : 34962
        },
        {
            "buffer" : 0,
            "byteLength" : 12336,
            "byteOffset" : 4510648,
            "target" : 34962
        },
        {
            "buffer" : 0,
            "byteLength" : 8224,
            "byteOffset" : 4522984,
            "target" : 34962
        },
        {
            "buffer" : 0,
            "byteLength" : 11520,
            "byteOffset" : 4531208,
            "target" : 34963
        },
        {
            "buffer" : 0,
            "byteLength" : 78264,
            "byteOffset" : 4542728,
            "target" : 34962
        },
        {
            "buffer" : 0,
            "byteLength" : 78264,
            "byteOffset" : 4620992,
            "target" : 34962
        },
        {
            "buffer" : 0,
            "byteLength" : 52176,
            "byteOffset" : 4699256,
            "target" : 34962
        },
        {
            "buffer" : 0,
            "byteLength" : 68856,
            "byteOffset" : 4751432,
            "target" : 34963
        },
        {
            "buffer" : 0,
            "byteLength" : 3780,
            "byteOffset" : 4820288,
            "target" : 34962
        },
        {
            "buffer" : 0,
            "byteLength" : 3780,
            "byteOffset" : 4824068,
            "target" : 34962
        },
        {
            "buffer" : 0,
            "byteLength" : 2520,
            "byteOffset" : 4827848,
            "target" : 34962
        },
        {
            "buffer" : 0,
            "byteLength" : 3552,
            "byteOffset" : 4830368,
            "target" : 34963
        }
    ],
    "buffers" : [
        {
            "byteLength" : 4833920,
            "uri" : "almond.bin"
        }
    ]
}
